<?xml version="1.0" encoding="UTF-8"?>
<svg version="1.1" viewBox="0 0 132 99" xml:space="preserve" xmlns="http://www.w3.org/2000/svg"
    xmlns:cc="http://creativecommons.org/ns#" xmlns:dc="http://purl.org/dc/elements/1.1/"
    xmlns:rdf="http://www.w3.org/1999/02/22-rdf-syntax-ns#">
    <rect width="78" height="53" x="27" y="14" fill="#fff" />
    <g transform="matrix(1.3333 0 0 -1.3333 0 99)">
        <g transform="matrix(.38424 0 0 .38424 31.009 48.966)">
            <path
                d="m0 0c-5.322 2.654-11.084 2.513-16.878 2.519v-26.862c4.416-0.084 8.71-0.134 12.907 0.995 6.716 1.806 9.75 5.364 10.095 12.179 0.248 4.895-1.552 8.889-6.124 11.169"
                fill="#103d65" />
        </g>
        <g transform="matrix(.38424 0 0 .38424 74.587 24.238)">
            <path
                d="m0 0c-0.339 0.383-0.753 0.723-1.006 1.156-4.89 8.403-9.759 16.817-14.636 25.227-0.276 0.476-1.316 2.199-2.582 4.287-0.388-0.624-0.646-1.036-0.683-1.099-5.682-9.409-11.355-18.823-17.049-28.225-0.304-0.501-0.777-0.9-1.172-1.346h-10.006c-0.304 0.467-0.676 0.904-0.902 1.406-8.058 17.9-16.102 35.805-24.151 53.708-0.362 0.804-0.759 1.592-1.231 2.575-0.268-0.547-0.428-0.85-0.568-1.162-7.313-16.264-14.619-32.532-21.942-48.792-1.168-2.594-2.402-5.158-3.606-7.735h-10.006c0.226 0.564 0.426 1.142 0.68 1.693 11.796 25.593 23.595 51.184 35.394 76.775h0.264c0.829-1.922 1.619-3.862 2.495-5.763 9.429-20.455 18.87-40.905 28.309-61.355 0.233-0.504 0.483-1 0.824-1.705 1.496 2.467 2.876 4.737 4.248 7.009l13.136 21.725 0.652 1.051c-0.343 0.566-0.574 0.951-0.646 1.071-6.54 11.158-13.045 22.337-19.556 33.512-0.212 0.364-0.402 0.743-0.697 1.289 3.552 0 6.915 0.03 10.275-0.042 0.363-8e-3 0.827-0.545 1.054-0.944 4.545-8.005 9.061-16.027 13.584-24.045 0.057-0.102 0.543-0.917 1.333-2.244l2.264 3.64 13.698 22.768c0.218 0.36 0.658 0.826 1.001 0.833 3.361 0.062 6.723 0.037 10.322 0.037-0.686-1.153-1.25-2.121-1.832-3.078-6.475-10.637-12.942-21.278-19.451-31.893-0.082-0.132-0.347-0.559-0.722-1.159 6.894-11.559 17.31-29.039 21.851-36.837 0.429-0.736 0.714-1.557 1.066-2.338zm-125.24 31.58c-1.644-0.14-3.309-0.024-5.107-0.024v-31.556h-9.479v75.308c5.875-0.085 11.755-0.064 17.625-0.293 4.171-0.162 8.252-0.992 12.17-2.532 7.04-2.767 10.768-8.001 11.493-15.431 0.461-4.727 0.179-9.387-1.981-13.743-2.954-5.96-8.08-9.157-14.308-10.564-3.387-0.765-6.931-0.87-10.413-1.165m-67.233-63.847h255.12v141.73h-255.12z"
                fill="#103d65" />
        </g>
    </g>
</svg>
